<svg width="60" height="68" viewBox="0 0 60 68" fill="none" xmlns="http://www.w3.org/2000/svg">
<g filter="url(#filter0_dd_4045_321)">
<rect x="12" y="16" width="36" height="36" rx="2" fill="#D47912"/>
<rect x="13" y="17" width="34" height="34" rx="1" stroke="#965204" stroke-width="2"/>
<g clip-path="url(#clip0_4045_321)">
<path d="M31 30H33V38H31V30ZM27 30H29V38H27V30ZM30 44C35.52 44 40 39.52 40 34C40 28.48 35.52 24 30 24C24.48 24 20 28.48 20 34C20 39.52 24.48 44 30 44ZM30 26C34.41 26 38 29.59 38 34C38 38.41 34.41 42 30 42C25.59 42 22 38.41 22 34C22 29.59 25.59 26 30 26Z" fill="white"/>
</g>
</g>
<defs>
<filter id="filter0_dd_4045_321" x="0" y="0" width="60" height="68" filterUnits="userSpaceOnUse" color-interpolation-filters="sRGB">
<feFlood flood-opacity="0" result="BackgroundImageFix"/>
<feColorMatrix in="SourceAlpha" type="matrix" values="0 0 0 0 0 0 0 0 0 0 0 0 0 0 0 0 0 0 127 0" result="hardAlpha"/>
<feMorphology radius="2" operator="dilate" in="SourceAlpha" result="effect1_dropShadow_4045_321"/>
<feOffset dy="-4"/>
<feGaussianBlur stdDeviation="5"/>
<feColorMatrix type="matrix" values="0 0 0 0 0.792157 0 0 0 0 0.466667 0 0 0 0 0.0980392 0 0 0 0.15 0"/>
<feBlend mode="normal" in2="BackgroundImageFix" result="effect1_dropShadow_4045_321"/>
<feColorMatrix in="SourceAlpha" type="matrix" values="0 0 0 0 0 0 0 0 0 0 0 0 0 0 0 0 0 0 127 0" result="hardAlpha"/>
<feMorphology radius="2" operator="dilate" in="SourceAlpha" result="effect2_dropShadow_4045_321"/>
<feOffset dy="4"/>
<feGaussianBlur stdDeviation="5"/>
<feColorMatrix type="matrix" values="0 0 0 0 0.792157 0 0 0 0 0.466667 0 0 0 0 0.0980392 0 0 0 0.15 0"/>
<feBlend mode="normal" in2="effect1_dropShadow_4045_321" result="effect2_dropShadow_4045_321"/>
<feBlend mode="normal" in="SourceGraphic" in2="effect2_dropShadow_4045_321" result="shape"/>
</filter>
<clipPath id="clip0_4045_321">
<rect width="24" height="24" fill="white" transform="translate(18 22)"/>
</clipPath>
</defs>
</svg>
